<?xml version="1.0" encoding="utf-8"?>
<!-- Generator: Adobe Illustrator 16.0.0, SVG Export Plug-In . SVG Version: 6.00 Build 0)  -->
<!DOCTYPE svg PUBLIC "-//W3C//DTD SVG 1.1//EN" "http://www.w3.org/Graphics/SVG/1.1/DTD/svg11.dtd">
<svg version="1.1" id="Layer_1" xmlns="http://www.w3.org/2000/svg" xmlns:xlink="http://www.w3.org/1999/xlink" x="0px" y="0px"
	 width="1125px" height="732px" viewBox="0 0 1125 732" enable-background="new 0 0 1125 732" xml:space="preserve">
<g transform="translate(300,300)" opacity="0.5">
	<linearGradient id="SVGID_1_" gradientUnits="userSpaceOnUse" x1="-30.2065" y1="67.0479" x2="825" y2="67.0479">
		<stop  offset="0" style="stop-color:#FFFFFF;stop-opacity:0.1"/>
		<stop  offset="1" style="stop-color:#C1272D"/>
	</linearGradient>
	<path fill="url(#SVGID_1_)" d="M701.616-237.139c90.039,69.888,148.137,211.498,112.998,316.227
		c-35.137,104.936-163.508,172.99-296.271,242.268c-132.764,69.277-269.919,139.57-372.537,102.488
		C43.39,386.559-24.689,241.686-29.88,112.506C-35.07-16.676,22.228-130.371,98.692-197
		c76.663-66.831,172.292-86.596,281.296-97.395C488.996-305.193,611.377-307.028,701.616-237.139z"/>
</g>
<g>
	<linearGradient id="SVGID_2_" gradientUnits="userSpaceOnUse" x1="186.2515" y1="367.6914" x2="770.6094" y2="367.6914">
		<stop  offset="0" style="stop-color:#A246C4"/>
		<stop  offset="1" style="stop-color:#5EAFFF"/>
	</linearGradient>
	<rect x="221.737" y="116.032" fill="url(#SVGID_2_)" width="522.813" height="503.317"/>
	<g>
		<linearGradient id="SVGID_3_" gradientUnits="userSpaceOnUse" x1="775.5596" y1="414.6309" x2="875.2949" y2="414.6309">
			<stop  offset="0.0052" style="stop-color:#595959"/>
			<stop  offset="1" style="stop-color:#FFFFFF"/>
		</linearGradient>
		<path fill="url(#SVGID_3_)" d="M869.59,435.622c0,0-28.403-78.04-94.03-57.517c0,0,55.37,8.884,83.768,55.273
			C887.727,479.773,869.59,435.622,869.59,435.622z"/>
		<linearGradient id="SVGID_4_" gradientUnits="userSpaceOnUse" x1="852.7207" y1="414.6309" x2="952.4561" y2="414.6309">
			<stop  offset="0.0052" style="stop-color:#595959"/>
			<stop  offset="1" style="stop-color:#FFFFFF"/>
		</linearGradient>
		<path fill="url(#SVGID_4_)" d="M858.427,435.622c0,0,28.397-78.04,94.029-57.517c0,0-55.366,8.884-83.768,55.273
			C840.288,479.773,858.427,435.622,858.427,435.622z"/>
		<linearGradient id="SVGID_5_" gradientUnits="userSpaceOnUse" x1="927.583" y1="408.9434" x2="982.6133" y2="408.9434">
			<stop  offset="0.0052" style="stop-color:#B3B3B3"/>
			<stop  offset="1" style="stop-color:#FFFFFF"/>
		</linearGradient>
		<path fill="url(#SVGID_5_)" d="M927.583,374.766c0,0,44.528-4.589,1.708,65.776l23.165,2.709
			C952.456,443.251,1034.684,371.184,927.583,374.766z"/>
		<linearGradient id="SVGID_6_" gradientUnits="userSpaceOnUse" x1="848.7715" y1="431.4434" x2="877.3936" y2="431.4434">
			<stop  offset="0.0052" style="stop-color:#B3B3B3"/>
			<stop  offset="1" style="stop-color:#FFFFFF"/>
		</linearGradient>
		<path fill="url(#SVGID_6_)" d="M877.394,435.841l-7.801,3.522l-2.094,0.946c0,0-30.712-8.636-13.477-16.024
			c4.14-1.772,7.635-2.028,10.563-1.39C873.851,424.904,877.394,435.841,877.394,435.841z"/>
		<linearGradient id="SVGID_7_" gradientUnits="userSpaceOnUse" x1="848.7715" y1="431.4434" x2="869.5928" y2="431.4434">
			<stop  offset="0.0052" style="stop-color:#595959"/>
			<stop  offset="1" style="stop-color:#FFFFFF"/>
		</linearGradient>
		<path fill="url(#SVGID_7_)" d="M869.593,439.363l-2.094,0.946c0,0-30.712-8.636-13.477-16.024c4.14-1.772,7.635-2.028,10.563-1.39
			c0.024,0.003,0.044,0.009,0.061,0.016C864.646,422.911,851.145,427.531,869.593,439.363z"/>
		<linearGradient id="SVGID_8_" gradientUnits="userSpaceOnUse" x1="860.7539" y1="658.7354" x2="860.7539" y2="498.3973">
			<stop  offset="0" style="stop-color:#40D5E6"/>
			<stop  offset="1" style="stop-color:#5577FF"/>
		</linearGradient>
		<rect x="741.16" y="431.479" fill="url(#SVGID_8_)" width="239.188" height="187.871"/>
		<linearGradient id="SVGID_9_" gradientUnits="userSpaceOnUse" x1="732.6777" y1="459.6816" x2="988.8281" y2="459.6816">
			<stop  offset="0" style="stop-color:#40D5E6"/>
			<stop  offset="1" style="stop-color:#5577FF"/>
		</linearGradient>
		<rect x="732.678" y="431.479" fill="url(#SVGID_9_)" width="256.15" height="56.406"/>
		<linearGradient id="SVGID_10_" gradientUnits="userSpaceOnUse" x1="899.6738" y1="525.4141" x2="819.2675" y2="525.4141">
			<stop  offset="0.0052" style="stop-color:#B3B3B3"/>
			<stop  offset="1" style="stop-color:#FFFFFF"/>
		</linearGradient>
		<rect x="835.029" y="431.479" fill="url(#SVGID_10_)" width="51.451" height="187.871"/>
	</g>
	<g>
		<linearGradient id="SVGID_11_" gradientUnits="userSpaceOnUse" x1="973.792" y1="479.1367" x2="1013.5078" y2="479.1367">
			<stop  offset="0" style="stop-color:#1F3073"/>
			<stop  offset="1" style="stop-color:#4E6CDE"/>
		</linearGradient>
		<path fill="url(#SVGID_11_)" d="M1013.508,494.165c0,0-20.811-7.567-32.302-16.063c-3.411-2.519-6.004-5.125-6.987-7.639
			c-0.854-2.191-0.485-4.311,1.635-6.246c0,0,1.392-0.57,4.914,0.892c5.223,2.171,15.127,8.796,32.123,28.345
			C1013.097,493.687,1013.303,493.925,1013.508,494.165z"/>
		<linearGradient id="SVGID_12_" gradientUnits="userSpaceOnUse" x1="954.3506" y1="483.9922" x2="1013.5078" y2="483.9922">
			<stop  offset="0" style="stop-color:#7C3596"/>
			<stop  offset="1" style="stop-color:#3098FF"/>
		</linearGradient>
		<path fill="url(#SVGID_12_)" d="M1013.508,494.165l-1.186,5.802c0,0-41.543,10.377-54.74-3.164
			c-0.197-0.195-0.382-0.399-0.558-0.604c-1.147-1.32-1.891-2.691-2.293-4.086c-3.728-12.853,21.122-27.896,21.122-27.896
			c-0.567,0.723-0.418,1.723,0.28,2.928c0.676,1.158,1.86,2.505,3.406,3.963C989.324,480.358,1013.508,494.165,1013.508,494.165z"/>
		<linearGradient id="SVGID_13_" gradientUnits="userSpaceOnUse" x1="947.9727" y1="498.7617" x2="985.1371" y2="462.4582">
			<stop  offset="0" style="stop-color:#354996"/>
			<stop  offset="1" style="stop-color:#4E6CDE"/>
		</linearGradient>
		<path fill="url(#SVGID_13_)" d="M979.54,471.107c0,0-8.549,3.534-11.128,9.063c-2.588,5.535-4.029,10.236-7.602,11.925
			c-1.658,0.787-2.918,2.498-3.786,4.103c-1.147-1.32-1.891-2.691-2.293-4.086c0.287-2.219,1.107-4.637,2.959-6.824
			c5.314-6.288,10.693-10.83,11.353-13.112c0.497-1.722,4.935-4.008,7.091-5.031C976.81,468.303,977.994,469.649,979.54,471.107
			L979.54,471.107z"/>
		<linearGradient id="SVGID_14_" gradientUnits="userSpaceOnUse" x1="1026.167" y1="479.1367" x2="1065.8857" y2="479.1367">
			<stop  offset="0" style="stop-color:#1F3073"/>
			<stop  offset="1" style="stop-color:#4E6CDE"/>
		</linearGradient>
		<path fill="url(#SVGID_14_)" d="M1026.167,494.165c0,0,20.81-7.567,32.302-16.063c3.411-2.519,6.005-5.125,6.987-7.639
			c0.857-2.191,0.49-4.311-1.634-6.246c0,0-1.391-0.57-4.914,0.892c-5.224,2.171-15.127,8.796-32.122,28.345
			C1026.582,493.687,1026.374,493.925,1026.167,494.165z"/>
		<linearGradient id="SVGID_15_" gradientUnits="userSpaceOnUse" x1="1026.167" y1="483.9922" x2="1085.3281" y2="483.9922">
			<stop  offset="0" style="stop-color:#7C3596"/>
			<stop  offset="1" style="stop-color:#3098FF"/>
		</linearGradient>
		<path fill="url(#SVGID_15_)" d="M1026.167,494.165l1.186,5.802c0,0,41.549,10.377,54.741-3.164
			c0.196-0.195,0.383-0.399,0.557-0.604c1.149-1.32,1.893-2.691,2.297-4.086c3.725-12.853-21.125-27.896-21.125-27.896
			c0.567,0.723,0.419,1.723-0.283,2.928c-0.673,1.158-1.861,2.505-3.404,3.963C1050.352,480.358,1026.167,494.165,1026.167,494.165z
			"/>
		<linearGradient id="SVGID_16_" gradientUnits="userSpaceOnUse" x1="1019.7559" y1="497.9453" x2="1018.8949" y2="487.4222">
			<stop  offset="0" style="stop-color:#354996"/>
			<stop  offset="1" style="stop-color:#4E6CDE"/>
		</linearGradient>
		<path fill="url(#SVGID_16_)" d="M1011.922,494.165c0,0,1.94-2.198,3.301-1.336c1.365,0.86,3.304-1.648,5.384-0.646
			s2.296-1.776,4.808-0.244c2.509,1.534,4.019,6.555,2.151,9.066c-1.867,2.513-2.867-0.503-3.802,0
			c-0.936,0.504-2.654,2.742-5.523,1.014c-2.871-1.729-7.105,1.57-6.819-0.58C1011.709,499.284,1010.705,498.302,1011.922,494.165z"
			/>
		<linearGradient id="SVGID_17_" gradientUnits="userSpaceOnUse" x1="1019.8379" y1="595.4551" x2="1019.8379" y2="509.0196">
			<stop  offset="0" style="stop-color:#FFC05C"/>
			<stop  offset="1" style="stop-color:#FF3857"/>
		</linearGradient>
		<rect x="943.713" y="499.761" fill="url(#SVGID_17_)" width="152.25" height="119.589"/>
		<linearGradient id="SVGID_18_" gradientUnits="userSpaceOnUse" x1="1019.8359" y1="548.3848" x2="1019.8359" y2="453.0718">
			<stop  offset="0" style="stop-color:#FFC05C"/>
			<stop  offset="1" style="stop-color:#FF3857"/>
		</linearGradient>
		<rect x="938.31" y="499.761" fill="url(#SVGID_18_)" width="163.053" height="41.497"/>
		<linearGradient id="SVGID_19_" gradientUnits="userSpaceOnUse" x1="1019.8379" y1="623.2002" x2="1019.8379" y2="457.8806">
			<stop  offset="0" style="stop-color:#7C3596"/>
			<stop  offset="1" style="stop-color:#3098FF"/>
		</linearGradient>
		<rect x="1003.463" y="499.761" fill="url(#SVGID_19_)" width="32.751" height="119.589"/>
	</g>
	<g>
		<linearGradient id="SVGID_20_" gradientUnits="userSpaceOnUse" x1="59.7622" y1="206.7676" x2="210.0215" y2="206.7676">
			<stop  offset="0" style="stop-color:#40D5E6"/>
			<stop  offset="1" style="stop-color:#5577FF"/>
		</linearGradient>
		<path fill="url(#SVGID_20_)" d="M133.464,292.031c26.361,18.361,52.221,30.671,66.104,23.163c0.821-0.442,1.589-0.951,2.312-1.52
			c7.929-6.282,10.731-20.945,5.413-47.517c-14.155-70.722-58.59-81.98-100.121-103.266c-41.018-21-25.383-65.65-24.976-66.787
			C25.538,196.492,88.775,260.886,133.464,292.031z"/>
		<g>
			
				<linearGradient id="SVGID_21_" gradientUnits="userSpaceOnUse" x1="-5502.9575" y1="2312.9512" x2="-5502.9575" y2="2167.7788" gradientTransform="matrix(-0.7847 0.6199 0.6199 0.7847 -5537.4756 1928.4004)">
				<stop  offset="0" style="stop-color:#40D5E6"/>
				<stop  offset="1" style="stop-color:#5577FF"/>
			</linearGradient>
			<path fill="url(#SVGID_21_)" d="M199.568,315.193c0.821-0.442,1.589-0.951,2.312-1.52c-5.23-13.748-16.778-40.351-32.535-54.756
				c-7.439-6.796-16.074-12.935-25.204-19.447c-17.276-12.29-35.132-25.02-47.206-43.777l-2.254,1.442
				c12.362,19.192,30.432,32.058,47.918,44.505c9.068,6.456,17.632,12.552,24.939,19.245
				C182.913,274.934,194.479,301.793,199.568,315.193z"/>
		</g>
	</g>
	<g>
		<linearGradient id="SVGID_22_" gradientUnits="userSpaceOnUse" x1="0.7993" y1="332.0664" x2="261.5679" y2="332.0664">
			<stop  offset="0" style="stop-color:#40D5E6"/>
			<stop  offset="1" style="stop-color:#5577FF"/>
		</linearGradient>
		<path fill="url(#SVGID_22_)" d="M56.111,364.301c36.364,5.957,59.821-22.769,101.665,30.124
			c36.125,45.654,87.225-4.812,100.529-19.471c2.108-2.325,3.263-3.745,3.263-3.745s-0.8,0.215-2.195,0.524
			c-9.07,1.964-43.462,7.553-51.557-18.588c-9.337-30.189-36.067-71.25-71.38-60.42c-35.302,10.836-42.951-15.745-69.02-35.77
			c-26.069-20.024-66.617,16.943-66.617,16.943S19.751,358.345,56.111,364.301z"/>
		<g>
			
				<linearGradient id="SVGID_23_" gradientUnits="userSpaceOnUse" x1="-2809.1621" y1="2022.8867" x2="-2809.1621" y2="1843.9744" gradientTransform="matrix(-0.5585 0.8295 0.8295 0.5585 -2999.0508 1597.8184)">
				<stop  offset="0" style="stop-color:#40D5E6"/>
				<stop  offset="1" style="stop-color:#5577FF"/>
			</linearGradient>
			<path fill="url(#SVGID_23_)" d="M170.006,354.308c6.906,12.008,14.05,24.416,30.26,31.216
				c22.114,9.267,44.692-1.597,58.039-10.569c2.108-2.325,3.263-3.745,3.263-3.745s-0.8,0.215-2.195,0.524
				c-12.582,8.941-35.782,21.352-58.315,11.902c-15.567-6.527-22.54-18.64-29.28-30.345c-7.792-13.54-15.842-27.539-37.041-32.381
				c-9.362-2.139-17.67-1.455-25.703-0.794c-11.573,0.957-22.503,1.866-34.474-6.44l-1.17,1.684
				c12.577,8.728,23.863,7.788,35.808,6.806c7.88-0.65,16.026-1.333,25.081,0.748C154.602,327.55,162.092,340.551,170.006,354.308z"
				/>
		</g>
	</g>
	<g>
		
			<linearGradient id="SVGID_24_" gradientUnits="userSpaceOnUse" x1="4097.6016" y1="-5589.3433" x2="4174.9028" y2="-5700.3203" gradientTransform="matrix(0.7071 0.7071 -0.7071 0.7071 -6177.3091 1243.1436)">
			<stop  offset="0" style="stop-color:#40D5E6"/>
			<stop  offset="1" style="stop-color:#5577FF"/>
		</linearGradient>
		<path fill="url(#SVGID_24_)" d="M733.623,195.208c3.899,71.856,60.91,68.28,65.417,67.885c0.193-0.017,0.287-0.027,0.287-0.027
			c-1.251-1.443-2.417-2.909-3.469-4.401c-28.556-39.553,3.971-93.669,3.433-133.473c-0.559-41.285-37.347-50.336-37.347-50.336
			C789.013,97.628,729.57,120.394,733.623,195.208z"/>
		<g>
			
				<linearGradient id="SVGID_25_" gradientUnits="userSpaceOnUse" x1="-11452.1699" y1="-1096.1924" x2="-11374.8711" y2="-1207.1665" gradientTransform="matrix(-0.9932 -0.1166 -0.1166 0.9932 -11403.998 -1328.1382)">
				<stop  offset="0" style="stop-color:#40D5E6"/>
				<stop  offset="1" style="stop-color:#5577FF"/>
			</linearGradient>
			<path fill="url(#SVGID_25_)" d="M766.983,231.402c7.737,13.803,19.951,24.27,32.057,31.691c0.193-0.017,0.287-0.027,0.287-0.027
				c-1.251-1.443-2.417-2.909-3.469-4.401c-10.409-7.02-20.461-16.371-27.117-28.243c-8.561-15.268-10.005-32.146-4.322-50.161
				c18.04-57.125,7.805-66.223,7.362-66.59l-0.63,0.788l-0.657,0.764c0,0,0.01,0.014,0.026,0.024
				c0.533,0.568,8.932,10.719-8.017,64.405C756.637,198.223,758.148,215.635,766.983,231.402z"/>
		</g>
	</g>
	<g>
		<linearGradient id="SVGID_26_" gradientUnits="userSpaceOnUse" x1="804.4492" y1="312.9805" x2="886.0157" y2="-24.1752">
			<stop  offset="0" style="stop-color:#40D5E6"/>
			<stop  offset="1" style="stop-color:#5577FF"/>
		</linearGradient>
		<path fill="url(#SVGID_26_)" d="M848.488,267.01c-22.658,27.929-46.651,49.194-63.913,45.429c-1.017-0.223-2.005-0.53-2.959-0.919
			c-10.478-4.295-18.038-19.198-20.565-49.429c-6.722-80.456,37.575-106.354,75.643-142.138
			c37.604-35.314,24.853-78.487,24.063-79.584C952.848,130.759,886.889,219.645,848.488,267.01z"/>
		<g>
			<linearGradient id="SVGID_27_" gradientUnits="userSpaceOnUse" x1="758.2607" y1="295.2178" x2="907.4193" y2="146.0593">
				<stop  offset="0" style="stop-color:#40D5E6"/>
				<stop  offset="1" style="stop-color:#5577FF"/>
			</linearGradient>
			<path fill="url(#SVGID_27_)" d="M784.575,312.439c-1.017-0.223-2.005-0.53-2.959-0.919c1.361-16.41,5.528-48.606,18.006-68.99
				c5.893-9.618,13.271-18.901,21.07-28.735c14.768-18.581,30.028-37.813,37.189-61.736l2.874,0.851
				c-7.344,24.477-22.787,43.923-37.729,62.738c-7.751,9.758-15.074,18.971-20.855,28.439
				C789.996,263.968,785.893,296.446,784.575,312.439z"/>
		</g>
	</g>
	<linearGradient id="SVGID_28_" gradientUnits="userSpaceOnUse" x1="151.6675" y1="394.0137" x2="814.6182" y2="394.0137">
		<stop  offset="0" style="stop-color:#FFC05C"/>
		<stop  offset="1" style="stop-color:#FF3857"/>
	</linearGradient>
	<path fill="url(#SVGID_28_)" d="M780.88,599.785H185.408c-18.633,0-33.741-15.105-33.741-33.739V221.983
		c0-18.636,15.108-33.74,33.741-33.74H780.88c18.634,0,33.738,15.104,33.738,33.74v344.063
		C814.618,584.68,799.514,599.785,780.88,599.785z"/>
	<g>
		<path fill="#FF7759" d="M701.273,330.054c-30.102,0-54.59-24.489-54.59-54.589c0-30.101,24.488-54.59,54.59-54.59
			c30.1,0,54.589,24.489,54.589,54.59C755.862,305.565,731.373,330.054,701.273,330.054z M701.273,228.911
			c-25.668,0-46.556,20.882-46.556,46.554c0,25.669,20.888,46.554,46.556,46.554s46.554-20.885,46.554-46.554
			C747.827,249.792,726.941,228.911,701.273,228.911z"/>
	</g>
	<g>
		<path fill="#FF6A59" d="M225.899,505.659c-2.997,0-5.776-0.513-8.344-1.54c-2.566-1.022-4.792-2.414-6.674-4.17
			c-1.882-1.752-3.382-3.805-4.493-6.159c-1.112-2.354-1.668-4.899-1.668-7.639c0-2.65,0.556-5.177,1.668-7.574
			c1.111-2.393,2.611-4.446,4.493-6.159c1.882-1.708,4.108-3.078,6.674-4.108c2.568-1.023,5.347-1.537,8.344-1.537
			c2.907,0,5.667,0.514,8.277,1.537c2.61,1.03,4.855,2.4,6.74,4.108c1.88,1.713,3.38,3.767,4.491,6.159
			c1.114,2.397,1.668,4.924,1.668,7.574c0,2.739-0.554,5.285-1.668,7.639c-1.111,2.354-2.61,4.407-4.491,6.159
			c-1.885,1.756-4.13,3.147-6.74,4.17C231.565,505.146,228.806,505.659,225.899,505.659z M211.908,553.15l36.194-42.227
			l33.373-43.895l7.831,6.929l-35.041,41.457l-34.527,44.665L211.908,553.15z M225.899,497.063c1.283,0,2.458-0.3,3.529-0.897
			c1.069-0.598,2.033-1.393,2.887-2.375c0.854-0.984,1.516-2.141,1.989-3.467c0.472-1.324,0.706-2.716,0.706-4.172
			c0-2.994-0.895-5.537-2.695-7.635c-1.796-2.097-3.936-3.146-6.416-3.146c-1.283,0-2.461,0.301-3.53,0.898
			c-1.071,0.601-2.034,1.391-2.889,2.374c-0.855,0.986-1.52,2.117-1.989,3.403c-0.471,1.284-0.706,2.65-0.706,4.105
			c0,3,0.898,5.563,2.694,7.703C221.276,495.991,223.416,497.063,225.899,497.063z M275.44,560.466
			c-2.995,0-5.774-0.515-8.342-1.537c-2.565-1.026-4.794-2.397-6.674-4.11c-1.883-1.711-3.38-3.74-4.492-6.095
			c-1.114-2.354-1.668-4.896-1.668-7.638c0-2.736,0.554-5.281,1.668-7.635c1.111-2.354,2.608-4.406,4.492-6.162
			c1.88-1.754,4.109-3.145,6.674-4.171c2.568-1.026,5.347-1.54,8.342-1.54c2.996,0,5.778,0.514,8.344,1.54s4.815,2.417,6.736,4.171
			c1.928,1.756,3.424,3.808,4.495,6.162c1.07,2.354,1.604,4.898,1.604,7.635c0,2.741-0.534,5.284-1.604,7.638
			c-1.07,2.354-2.566,4.384-4.495,6.095c-1.921,1.713-4.17,3.084-6.736,4.11C281.218,559.951,278.436,560.466,275.44,560.466z
			 M275.44,551.868c1.283,0,2.461-0.298,3.529-0.902c1.07-0.594,2.034-1.388,2.891-2.37c0.854-0.982,1.518-2.117,1.989-3.403
			c0.469-1.28,0.706-2.651,0.706-4.106c0-1.54-0.257-2.972-0.77-4.299c-0.514-1.326-1.177-2.478-1.989-3.465
			c-0.814-0.982-1.777-1.752-2.888-2.311c-1.114-0.557-2.271-0.836-3.468-0.836c-1.281,0-2.462,0.304-3.529,0.9
			c-1.07,0.598-2.033,1.393-2.887,2.375c-0.857,0.982-1.52,2.137-1.988,3.464c-0.471,1.327-0.708,2.716-0.708,4.171
			c0,2.998,0.898,5.541,2.696,7.638C270.82,550.82,272.958,551.868,275.44,551.868z"/>
	</g>
	<linearGradient id="SVGID_29_" gradientUnits="userSpaceOnUse" x1="55.2388" y1="254.1499" x2="616.7248" y2="254.1499">
		<stop  offset="0" style="stop-color:#FFC05C"/>
		<stop  offset="1" style="stop-color:#FF3857"/>
	</linearGradient>
	<rect x="190.462" y="241.57" fill="url(#SVGID_29_)" width="351.656" height="25.16"/>
	<linearGradient id="SVGID_30_" gradientUnits="userSpaceOnUse" x1="55.2388" y1="224.1348" x2="616.7248" y2="224.1348">
		<stop  offset="0" style="stop-color:#FFC05C"/>
		<stop  offset="1" style="stop-color:#FF3857"/>
	</linearGradient>
	<rect x="190.462" y="220.874" fill="url(#SVGID_30_)" width="351.656" height="6.521"/>
	<linearGradient id="SVGID_31_" gradientUnits="userSpaceOnUse" x1="55.2393" y1="293.2324" x2="616.7253" y2="293.2324">
		<stop  offset="0" style="stop-color:#FFC05C"/>
		<stop  offset="1" style="stop-color:#FF3857"/>
	</linearGradient>
	<rect x="190.462" y="280.652" fill="url(#SVGID_31_)" width="179.857" height="25.16"/>
	<linearGradient id="SVGID_32_" gradientUnits="userSpaceOnUse" x1="739.0791" y1="465.1748" x2="250.0174" y2="465.1748">
		<stop  offset="0" style="stop-color:#EDF4FF"/>
		<stop  offset="1" style="stop-color:#EDFFFE"/>
	</linearGradient>
	<path opacity="0.95" fill="url(#SVGID_32_)" d="M594.989,637.118H371.297c-14.22,0-25.75-11.528-25.75-25.749V318.981
		c0-14.222,11.529-25.749,25.75-25.749h223.692c14.22,0,25.751,11.527,25.751,25.749v292.388
		C620.74,625.59,609.209,637.118,594.989,637.118z"/>
	<g>
		<path fill="#FF5458" d="M552.796,577.714c-16.722,0-30.327-13.605-30.327-30.327c0-16.723,13.605-30.326,30.327-30.326
			c16.722,0,30.327,13.604,30.327,30.326C583.123,564.108,569.518,577.714,552.796,577.714z M552.796,522.929
			c-13.487,0-24.458,10.972-24.458,24.458s10.972,24.458,24.458,24.458c13.487,0,24.455-10.972,24.455-24.458
			S566.283,522.929,552.796,522.929z"/>
	</g>
	<g>
		<polygon fill="#FF5458" points="550.862,559.324 537.085,545.547 541.235,541.396 550.862,551.023 564.358,537.525 
			568.508,541.677 		"/>
	</g>
	<g>
		<rect x="637.02" y="534.038" fill="#FF7759" width="8.8" height="40.563"/>
		<rect x="650.029" y="534.038" fill="#FF7759" width="4.401" height="40.563"/>
		<rect x="658.64" y="534.038" fill="#FF7759" width="8.034" height="40.563"/>
		<rect x="671.013" y="534.038" fill="#FF7759" width="4.823" height="40.563"/>
		<rect x="679.209" y="534.187" fill="#FF7759" width="2.242" height="40.563"/>
		<rect x="684.716" y="534.038" fill="#FF7759" width="7.692" height="40.563"/>
		<rect x="695.525" y="534.038" fill="#FF7759" width="5.828" height="40.563"/>
		<rect x="704.14" y="534.038" fill="#FF7759" width="2.911" height="40.563"/>
		<rect x="710.357" y="534.038" fill="#FF7759" width="8.266" height="40.563"/>
		<rect x="720.704" y="534.038" fill="#FF7759" width="6.169" height="40.563"/>
		<rect x="729.536" y="534.038" fill="#FF7759" width="3.083" height="40.563"/>
		<rect x="735.078" y="534.038" fill="#FF7759" width="4.248" height="40.563"/>
		<rect x="742.356" y="534.228" fill="#FF7759" width="13.506" height="40.565"/>
	</g>
	<linearGradient id="SVGID_33_" gradientUnits="userSpaceOnUse" x1="483.145" y1="167.6147" x2="483.145" y2="83.7148">
		<stop  offset="0" style="stop-color:#7C3596"/>
		<stop  offset="1" style="stop-color:#3098FF"/>
	</linearGradient>
	<path fill="url(#SVGID_33_)" d="M205.918,83.715v74.563c0,0,14.867,21.007,32.615,0h32.614c0,0,14.865,21.007,32.613,0h32.618
		c0,0,14.863,21.007,32.613,0h32.615c0,0,14.866,21.007,32.616,0h32.611c0,0,14.867,21.007,32.618,0h32.613
		c0,0,14.865,21.007,32.614,0h32.615c0,0,14.866,21.007,32.617,0h32.613c0,0,14.863,21.007,32.611,0h32.617
		c0,0,14.866,21.007,32.617,0V83.715H205.918z"/>
	<g>
		<path fill="#38D2E0" d="M238.534,158.278c0,0,14.866,21.007,32.614,0V83.715h-32.614V158.278z"/>
		<path fill="#38D2E0" d="M303.761,158.278c0,0,14.865,21.007,32.618,0V83.715h-32.618V158.278z"/>
		<path fill="#38D2E0" d="M368.992,158.278c0,0,14.867,21.007,32.615,0V83.715h-32.615V158.278z"/>
		<path fill="#38D2E0" d="M434.223,158.278c0,0,14.865,21.007,32.611,0V83.715h-32.611V158.278z"/>
		<path fill="#38D2E0" d="M499.453,158.278c0,0,14.861,21.007,32.613,0V83.715h-32.613V158.278z"/>
		<path fill="#38D2E0" d="M564.68,158.278c0,0,14.867,21.007,32.615,0V83.715H564.68V158.278z"/>
		<path fill="#38D2E0" d="M629.912,158.278c0,0,14.864,21.007,32.613,0V83.715h-32.613V158.278z"/>
		<path fill="#38D2E0" d="M695.137,83.715v74.563c0,0,14.867,21.007,32.617,0V83.715H695.137z"/>
	</g>
	<path fill="#FF5458" d="M534.487,344.381l-4.592,20.237H412.132v4.595l16.943,78.668v2.296h9.598l2.438,10.191h3.508
		c-3.285,1.211-5.639,4.364-5.639,8.065c0,4.744,3.861,8.607,8.607,8.607c4.747,0,8.604-3.863,8.604-8.607
		c0-3.701-2.353-6.854-5.639-8.065h48.396c-3.285,1.211-5.639,4.364-5.639,8.065c0,4.744,3.86,8.607,8.604,8.607
		c4.748,0,8.61-3.863,8.61-8.607c0-3.701-2.355-6.854-5.64-8.065h3.825v-3.631h-64.73l-1.57-6.561h73.057v-2.296l13.87-64.393
		l8.052-35.477h49.382v-3.63H534.487z M452.564,468.434c0,2.742-2.234,4.979-4.976,4.979c-2.743,0-4.978-2.236-4.978-4.979
		c0-2.741,2.234-4.974,4.978-4.974C450.331,463.46,452.564,465.692,452.564,468.434z M506.892,468.434
		c0,2.742-2.232,4.979-4.978,4.979c-2.743,0-4.974-2.236-4.974-4.979c0-2.741,2.23-4.974,4.974-4.974
		C504.66,463.46,506.892,465.692,506.892,468.434z M456.871,396.201h30.797l-1.608,22.396h-27.582L456.871,396.201z
		 M454.437,418.597h-27.542l-4.825-22.396h30.755L454.437,418.597z M487.999,391.609H456.54l-1.607-22.396h34.672L487.999,391.609z
		 M493.65,369.213h34.634l-4.826,22.396h-31.416L493.65,369.213z M485.729,423.188l-1.607,22.396h-23.706l-1.606-22.396H485.729z
		 M489.775,423.188h26.881l-4.824,22.396h-23.665L489.775,423.188z M517.64,418.597h-27.534l1.606-22.396h30.756l-4.728,21.949
		L517.64,418.597z M450.891,369.213l1.607,22.396h-31.416l-4.825-22.396H450.891z M427.885,423.188h26.878l1.609,22.396h-23.667
		L427.885,423.188z"/>
	<rect x="469.347" y="597.978" fill="#FF5458" width="27.594" height="3.509"/>
	<rect x="469.347" y="312.872" fill="#FF5458" width="27.594" height="3.511"/>
	<rect x="386.256" y="531.897" fill="#FF5458" width="68.201" height="9.111"/>
	<rect x="386.256" y="553.766" fill="#FF5458" width="100.969" height="9.115"/>
	<rect x="650.029" y="384.06" fill="#FF6A59" width="105.833" height="34.793"/>
	<rect x="650.029" y="428.442" fill="#FF6A59" width="105.833" height="20.673"/>
	<g>
		<g>
			<g>
				<g>
					<path fill="#EEA886" d="M697.999,540.582c0,0-1.387,2.273-1.561,4.127c-0.136,1.469-1.372,3.664-1.906,4.876
						s-2.251,6.699-2.314,8.125c-0.026,0.583,1.275,4.261,1.093,5.439c-0.186,1.175-0.861,3.509,0.197,3.664
						c1.058,0.155,2.254-1.757,2.254-1.757s-0.098,1.081,0.794,1.497c1.738,0.803,2.66,0.094,2.66,0.094s0.643,1.196,1.448,1.354
						c1.77,0.354,2.642-0.358,2.642-0.358s0.783,0.67,2.01,0.646c1.57-0.031,2.229-1.386,2.229-1.386s1.986,0.402,2.564-0.525
						c0.575-0.93,0.474-1.916,0.711-2.76c0.241-0.838,0.061-8.426-2.517-13.885c-2.577-5.461,0.657-10.79,0.657-10.79
						L697.999,540.582z"/>
				</g>
			</g>
		</g>
		<g>
			<g>
				<path fill="#DB9C7C" d="M695.484,564.345c0,0-0.176-6.808,1.61-8.257c1.797-1.447,2,1.011,2,1.011s-0.245-2.428,1.714-2.755
					c1.955-0.331,2.037,2.557,2.037,2.557s0.321-1.875,2.378-1.49s1.565,2.775,1.565,2.775s1.963-2.343,3.239-0.095
					c2.152,3.8,0.08,8.288,0.08,8.288s-0.61,1.025-2.564,0.525c0,0-1.312,2.634-4.238,0.739c0,0-2.998,1.648-4.09-0.996
					C699.216,566.647,695.911,568.219,695.484,564.345z"/>
			</g>
		</g>
		<path fill="#323657" d="M674.91,442.533c0,0,11.652,38.838,15.591,53.158c1.232,4.495,4.223,47.396,4.747,49.122
			c0.531,1.729,15.31,4.097,15.31,4.097s-1.791-53.672-1.957-56.599c-0.169-2.924-16.311-62.861-21-65
			c-3.519-1.601-5.375-0.279-9.807,3.013C671.574,434.939,674.91,442.533,674.91,442.533z"/>
		<g>
			<g>
				<path fill="#424773" d="M684.365,707.683c0,0,1.063,7.371,1.195,8.479c0.134,1.108,11.814-0.652,11.814-0.652l0.947-8.775
					C698.322,706.734,685.825,706.643,684.365,707.683z"/>
			</g>
		</g>
		<g>
			<g>
				<path fill="#292C47" d="M685.435,715.227c0,0-3.699,4.44-7.279,6.375c-3.58,1.938-9.208,2.704-11.324,4.711
					c-1.524,1.444-5.563,7.676,9.305,7.551c14.867-0.129,22.038,0.878,23.627-1.51c1.599-2.389-2.302-17.627-2.302-17.627
					S693.938,715.992,685.435,715.227z"/>
			</g>
		</g>
		<g>
			<g>
				<path fill="#424773" d="M600.658,707.683c0,0,1.067,7.371,1.199,8.479c0.131,1.108,11.813-0.652,11.813-0.652l0.944-8.775
					C614.614,706.734,602.12,706.643,600.658,707.683z"/>
			</g>
		</g>
		<g>
			<g>
				<path fill="#292C47" d="M601.732,715.227c0,0-3.704,4.44-7.284,6.375c-3.576,1.938-16.752,3.528-18.869,5.535
					c-1.53,1.444-4.07,7.271,16.85,6.727c14.863-0.389,22.036,0.878,23.632-1.51c1.594-2.389-2.308-17.627-2.308-17.627
					S610.438,716.078,601.732,715.227z"/>
			</g>
		</g>
		<g>
			<g>
				<path fill="#292C47" d="M674.693,518.255c0,0,10.977,17.438,10.155,33.201c-0.818,15.766,3.981,32.981,5.629,49.445
					c1.841,18.359,9.364,61.827,9.636,71.646c0.273,9.819-1.17,41.18-1.17,41.18l-15.056,0.345c0,0-12.649-75.984-15.927-83.741
					c-3.276-7.75-19.519-63.024-20.064-69.229C647.349,554.9,674.693,518.255,674.693,518.255z"/>
			</g>
		</g>
		<g>
			<g>
				<path fill="#292C47" d="M616.908,520.615c0,0-8.274,43.21-9.364,52.857c-1.095,9.651-1.821,46.694-2.366,52.725
					c-0.546,6.028-5.101,78.733-6.553,87.875h19.253c0,0,14.78-52.982,14.78-78.055c0-25.069,11.416-54.498,18.79-71.037
					c7.366-16.544,24.239-16.932,28.771-47.62C680.219,517.36,623.039,510.884,616.908,520.615z"/>
			</g>
		</g>
		<g>
			<g>
				<path fill="#EEA886" d="M656.375,371.628c0,0-14.732-5.507-21.527,5.71c-6.795,11.219-6.138,33.671,1.286,36.43
					c7.43,2.759,18.584,1.316,22.388-5.7c3.804-7.021,7.234-17.164,7.07-23.945C665.425,377.343,660.243,373.584,656.375,371.628z"
					/>
			</g>
		</g>
		<g>
			<g>
				<path fill="#EEA886" d="M637.735,414.28c0,0,0.613,3.981-0.402,5.939c-1.013,1.96,19.089,2.011,19.089,2.011
					s1.632-10.657,4.727-19.664C664.241,393.561,637.735,414.28,637.735,414.28z"/>
			</g>
		</g>
		<g>
			<g>
				<path fill="#323657" d="M661.148,402.566c0,0-1.39,2.285-7.051,1.401c-5.664-0.888-12.572-8.425-14.938-9.252
					c-2.364-0.824-2.384-2.216-2.384-2.216l-1.485,2.161l-2.509,0.158c0,0,2.289-6.739-1.164-9.484
					c-3.458-2.753,3.588-21.817,21.748-15.469c0,0,13.95,3.846,13.443,11.778C666.3,389.576,664.27,398.615,661.148,402.566z"/>
			</g>
		</g>
		<g>
			<g>
				<path fill="#E2D2CA" d="M636.143,419.983c0,0,0.06-3.745,1.758-4.103c1.699-0.358,18.735-1.998,20.818-1.178v4.359
					C658.719,419.063,654.704,421.535,636.143,419.983z"/>
			</g>
		</g>
		<g>
			<g>
				<path fill="#EEA886" d="M637.147,389.613c0.318-1.327,3.704-5.133,4.998-1.06c1.296,4.071-1.957,9.549-3.771,9.079
					C636.561,397.163,636.344,392.99,637.147,389.613z"/>
			</g>
		</g>
		<g>
			<g>
				<path fill="#323657" d="M568.531,464.22c0.008-0.003,0.018-0.003,0.027,0C568.44,464.271,568.423,464.273,568.531,464.22z"/>
			</g>
		</g>
		<g>
			<g>
				<path fill="#323657" d="M660.57,372.948c0,0,18.784,1.469,0.578,29.618L660.57,372.948z"/>
			</g>
		</g>
		<path fill="#EFAA88" d="M532.548,378.666c0.602-1.881,2.62-2.433,2.62-2.433c0.844-1.271,3.014-1.938,3.014-1.938
			c0.029-0.088,0.083-0.172,0.126-0.257c-1.333-1.432-5.205-4.105-5.431-4.613c-0.274-0.616-0.205-0.684,0.549-1.093
			c0.626-0.345,6.942,3.77,9.053,5.162c0.516,0.328,0.937,0.632,1.019,0.703c0.588,0.49,1.767,0.852,2.759,1.896
			c0.112,0.109,0.217,0.234,0.321,0.364c1.044,1.338,3.509,12.047,3.509,12.047l-4.4,1.976l-4.242,3.596
			c0,0-4.947-4.096-6.215-5.383c-1.275-1.29-1.854-2.791-2.204-3.424c-0.084-0.155-0.24-0.375-0.418-0.621
			c-0.576-0.777-1.449-1.817-1.449-1.817c-0.432-0.607-0.686-2.114-0.686-2.114C530.562,379.451,532.548,378.666,532.548,378.666z"
			/>
		<g>
			<g>
				<path fill="#323657" d="M607.964,425.654c11.683-1.54,28.179-5.671,28.179-5.671l22.576-0.921c0,0,20.721,4.561,28.882,8.249
					c0.772,0.352,0.776,18.484,2.9,23.239l-6.765,14.272c0,0-3.909,28.274-4.721,40.851c-0.371,5.771,8.059,54.127,8.059,54.127
					s-9.035,2.659-24.441,4.358c-15.409,1.698-53.91-0.614-54.151-2.435c-0.242-1.82,7.456-67.765,7.798-71.18
					c0.521-5.244-1.81-33.092-1.81-33.092c-3.555-2.762-34.792-17.259-43.314-24.82c-2.279-2.019-11.907-11.393-14.642-14.628
					c-9.689-11.457-17.63-21.287-18.6-23.404c-1.098-1.206,10.528-7.526,11.584-7.879c0.923-0.307,14.018,16.666,19.06,22.126
					c2.247,2.431,11.593,9.229,11.593,9.229S600.658,426.072,607.964,425.654z"/>
			</g>
		</g>
	</g>
	<g>
		<g>
			<path fill="#EEA886" d="M242.328,416.671c0,0,2.72-5.078,3.16-5.842c0.439-0.759,2.644-1.841,5.285-2.863
				c2.642-1.021,6.666-1.219,7.066-0.936c0.397,0.28,0.932,0.386,1.356,1.561c0.426,1.179,0.008,2.428,0.008,2.428
				s1.106,1.257,0.636,2.746c0,0,1.196,1.121,0.383,2.724c0,0,1.144,1.186,0.455,2.304c0,0-2.205,1.087-2.909,1.726
				c-0.701,0.639-5.452,2.583-10.296,3.751C247.472,424.269,242.526,423.824,242.328,416.671z"/>
		</g>
		<g>
			<path fill="#CF8C6C" d="M250.243,414.599c0,0-0.26,2.883-0.745,3.657c-0.481,0.769,5.549,3.254,5.549,3.254
				S253.734,415.007,250.243,414.599z"/>
		</g>
		<g>
			<g>
				<polygon fill="#EB4747" points="319.171,488.715 247.119,498.089 234.905,432.106 310.234,419.217 				"/>
			</g>
		</g>
		<g>
			<g>
				<path fill="#23344A" d="M282.696,425.69c-0.239-6.911-2.701-15.205-8.077-19.626c-3.974-3.262-8.817-3.964-13.811-3.156
					c-11.704,1.891-12.491,14.108-10.103,22.722L282.696,425.69z M251.909,424.077c-2.005-9.165-0.211-18.124,9.146-19.633
					c4.551-0.735,8.989-0.128,12.575,2.822c4.677,3.84,6.905,10.951,7.427,16.868L251.909,424.077z"/>
			</g>
		</g>
		<g>
			<g>
				<path fill="#23344A" d="M285.614,425.69c-0.24-6.911-3.34-15.205-8.715-19.626c-3.975-3.262-8.821-3.964-13.812-3.156
					c-11.704,1.891-10.37,14.108-7.98,22.722L285.614,425.69z M256.313,424.077c-2.004-9.165-2.337-18.124,7.025-19.633
					c4.549-0.735,8.984-0.128,12.575,2.822c4.674,3.84,7.966,10.951,8.486,16.868L256.313,424.077z"/>
			</g>
		</g>
		<g>
			<g>
				<polygon fill="#9E4CC7" points="308.058,499.284 223.956,492.812 230.718,424.678 308.862,422.381 				"/>
			</g>
		</g>
		<g>
			<path fill="#EEA886" d="M73.157,461.583c0,0,0.688-5.721,0.768-6.599c0.076-0.874-1.106-3.025-2.682-5.382
				c-1.575-2.352-4.756-4.826-5.244-4.822c-0.49,0.003-0.982-0.224-2.007,0.496c-1.026,0.723-1.452,1.935-1.452,1.935
				s-1.697,0.337-2.167,1.826c0,0-1.534,0.318-1.792,2.098c0,0-1.588,0.332-1.665,1.642c0,0,1.184,2.156,1.391,3.083
				c0.206,0.926,2.975,5.247,6.269,8.981C64.579,464.841,68.885,467.32,73.157,461.583z"/>
		</g>
		<g>
			<g>
				<path fill="#23344A" d="M82.44,469.478c0.686-5.285,0.018-12.089-3.532-16.218c-2.337-2.723-5.516-3.86-9.026-3.932
					c-4.839-0.114-9.337,1.219-12.643,4.813c-4.505,4.893-5.724,13.086-5.045,19.629L82.44,469.478z M53.542,472.078
					c-0.277-5.703,0.87-12.673,4.792-16.932c2.973-3.222,7.081-4.45,11.518-4.333c3.119,0.064,5.91,1.065,7.926,3.408
					c2.988,3.475,3.721,9.414,3.319,13.946L53.542,472.078z"/>
			</g>
		</g>
		<g>
			<g>
				<polygon fill="#3F74A0" points="19.929,547.184 25.445,476.185 37.761,546.194 29.244,544.706 				"/>
			</g>
		</g>
		<g>
			<g>
				<polygon fill="#5B83C2" points="37.761,546.194 110.917,533.332 98.945,465.189 25.252,475.664 				"/>
			</g>
		</g>
		<g>
			<g>
				<path fill="#23344A" d="M116.037,484.734c1.201,3.48,0.065,7.87-1.45,11.163l1.31,0.094c1.557-3.527,2.568-7.976,1.297-11.651
					L116.037,484.734z"/>
			</g>
		</g>
		<g>
			<g>
				<polygon fill="#EB4747" points="62.133,548.917 122.085,556.718 132.285,501.767 69.604,491.045 				"/>
			</g>
		</g>
		<g>
			<g>
				<polygon fill="#AD3434" points="49.922,547.184 69.567,491.089 62.133,548.562 55.768,546.194 				"/>
			</g>
		</g>
		<g>
			<g>
				<path fill="#23344A" d="M117.39,483.163c2.127,4.222,1.084,9.945,0.709,11.616l1.227,0.45c0.403-1.688,1.817-8.709-1.315-13.581
					L117.39,483.163z"/>
			</g>
		</g>
		<g>
			<g>
				<polygon fill="#B06E2A" points="55.768,555.586 69.102,494.979 71.381,557.358 64.105,554.576 				"/>
			</g>
		</g>
		<g>
			<path fill="#EEA886" d="M64.579,464.841c0,0,4.489,3.988,6.799,4.056c2.313,0.075,3.492-6.278,3.492-6.278l-1.996-3.89
				L64.579,464.841z"/>
		</g>
		<g>
			<path fill="#EEA886" d="M239.278,420.281c0,0,2.246-2.117,3.231-3.954c0.992-1.841,5.46,7.844,5.46,7.844
				s-5.573,0.23-8.023,1.955C237.495,427.852,239.278,420.281,239.278,420.281z"/>
		</g>
		<g>
			<path fill="#DB9C7C" d="M257.138,407.271c0,0-6.634,2.751-6.321,3.876c0.308,1.121,1.104,1.343,1.104,1.343l-2.214,2.37
				c0,0-0.582,2.398,2.202,2.331c0,0-0.775,2.182,1.899,1.797c0,0,0.133,1.672,1.405,1.708c1.272,0.044,5.463-1.904,5.463-1.904
				s0.701-0.811-0.339-2.304c0,0,0.871-1.492-0.271-2.792c0,0,0.51-1.304-0.734-2.694c0,0,0.906-2.994-1.493-3.972
				C257.838,407.03,257.415,407.156,257.138,407.271z"/>
		</g>
		<g>
			<path fill="#EEA886" d="M245.687,410.722c0,0,4.91,0.395,7.496,1.789c0.584,0.315,1.094,0.727,1.022,1.389
				c-0.073,0.66-1.123,1.397-3.257,1.334c-2.138-0.061-4.926,0.834-4.926,0.834S243.847,415.361,245.687,410.722z"/>
		</g>
		<g>
			<path fill="#CF8C6C" d="M67.869,455.339c0,0-1.443,2.509-1.492,3.418c-0.049,0.907-6.412-0.521-6.412-0.521
				S64.773,453.668,67.869,455.339z"/>
		</g>
		<g>
			<path fill="#DB9C7C" d="M66.438,445.381c0,0,3.846,6.062,2.944,6.802c-0.898,0.738-1.678,0.466-1.678,0.466l0.451,3.214
				c0,0-0.9,2.292-3.139,0.642c0,0-0.62,2.232-2.59,0.378c0,0-1.067,1.29-2.131,0.592c-1.063-0.696-3.376-4.697-3.376-4.697
				s-0.108-1.068,1.6-1.692c0,0,0.146-1.72,1.827-2.132c0,0,0.331-1.356,2.152-1.781c0,0,0.978-2.969,3.503-2.391
				C66,444.78,66.277,445.125,66.438,445.381z"/>
		</g>
		<g>
			<path fill="#EEA886" d="M73.826,454.785c0,0-4.249-2.499-7.166-2.844c-0.659-0.08-1.314-0.036-1.633,0.548
				c-0.322,0.58,0.117,1.79,1.898,2.964c1.785,1.176,3.553,3.513,3.553,3.513S72.665,459.638,73.826,454.785z"/>
		</g>
		<g>
			<g>
				<path fill="#3F74A0" d="M152.565,719.791c-3.432,1.031-4.461,6.867-7.378,8.581c-2.918,1.716-17.161,2.917-17.676-1.546
					c-0.515-4.461,5.975-8.459,8.893-10.691c2.917-2.229,9.47-9.56,10.808-12.474c0,0,1.18,1.856,4.667,1.287
					c3.489-0.571,4.07-1.497,4.07-1.497c-0.132,3.455,1.077,5.907,1.423,7.247C158.573,715.33,156,718.763,152.565,719.791z"/>
			</g>
		</g>
		<g>
			<g>
				<path fill="#3F74A0" d="M175.836,720.589c-2.647,2.415-3.151,6.26-6.067,7.979c-0.847,0.496-2.511,0.996-4.459,1.34
					c-3.563,0.643-8.084,0.777-10.296-0.516c-0.753-0.436-1.239-1.041-1.331-1.845c-0.517-4.461,6.097-9.462,9.016-11.689
					c1.793-1.371,3.654-4.563,5.133-7.497c0.925-1.83,1.698-3.563,2.215-4.686c0,0,0,0,0-0.006c0.01,0.021,0.168,0.325,0.599,0.629
					c0.603,0.434,1.738,0.865,3.741,0.537c2.798-0.459,3.872-1.195,4.188-1.47c0.017-0.016,0.032-0.029,0.044-0.039
					c0.019-0.021,0.032-0.031,0.042-0.044c0.006-0.008,0.01-0.014,0.013-0.014c0.003-0.003,0.007-0.006,0.009-0.011l0,0
					c0.003,0,0.003,0,0.003,0c0.576,2.79,1.483,5.637,1.825,6.978C181.717,714.868,178.342,718.311,175.836,720.589z"/>
			</g>
		</g>
		<g>
			<g>
				<path fill="#223247" d="M150.655,368.349c0,0,11.143-1.168,15.16,9.595c4.017,10.765,7.797,14.287,8.27,19.943
					c1.914,22.867,12.595,17.693,9.592,30.881c-3.004,13.182-5.084,15.176-5.084,15.176l-25.534-5.006l-25.866,0.082
					c0,0,10.12-5.052,7.866-15.817c-2.252-10.763-7.866-28.403-4.695-40.417C133.534,370.768,143.992,369.267,150.655,368.349z"/>
			</g>
		</g>
		<g>
			<g>
				<polygon fill="#FAA146" points="71.381,557.358 136.07,555.093 137.255,494.682 69.162,494.682 				"/>
			</g>
		</g>
		<g>
			<g>
				<polygon fill="#AD3434" points="336.135,483.883 310.234,419.217 319.171,488.715 326.716,484.295 				"/>
			</g>
		</g>
		<g>
			<g>
				<polygon fill="#5B2C73" points="326.819,497.154 308.862,422.381 308.058,499.284 316.799,495.938 				"/>
			</g>
		</g>
		<g>
			<g>
				<path fill="#EEA886" d="M132.248,521.814c0,0-9.391,32.733-11.029,41.089c-1.638,8.354-6.225,48.812-6.716,55.692
					c-0.492,6.879,15.334,39.139,16.197,41.465c3.345,9.005,16.997,41.669,16.997,41.669s8.822,5.24,7.834-2.435
					c-2.999-23.316-4.406-29.085-6.507-41.189c-4.599-26.502-14.098-29.979-12.646-33.846c14.699-39.084,17.66-65.604,19.626-67.897
					c1.965-2.292,2.235,1.168,3.383,6.247c1.145,5.079-0.462,40.031,1.6,53.521c1.125,7.345,3.656,23.813,4.475,33.313
					c0.819,9.502,5.109,53.472,5.109,53.472s0.564,1.642,7.119-1.989c1.087-0.604,6.284-38.863,6.448-50.165
					c0.165-11.303-4.832-12.916-0.824-34.798c8.592-46.9,7.404-54.98-2.615-88.688C156.178,444.793,132.248,521.814,132.248,521.814
					z"/>
			</g>
		</g>
		<g>
			<g>
				<path fill="#F0DDD5" d="M246.825,425.97c-0.391-0.403-24.223,17.845-26.825,19.351c-5.113,2.955-10.678,2.805-16.458,3.157
					c-6.481,0.398-13.845-0.29-20.208,0.989c-3.299,0.658-3.687,1.52-5.406,5.031c-4.675,9.546-6.191,21.416-6.811,31.915
					c-0.648,10.947,3.552,18.551,7.962,28.209c1.499,3.282,3.613,6.669,0.706,9.664c-2.615,2.698-7.75,3.245-11.182,3.694
					c-8.442,1.101-21.374,1.78-29.498-1.574c-9.941-4.099-8.162-16.616-9.225-25.353c-0.709-5.845-3.536-14.611-5.16-20.28
					c-1.597-5.593-1.772-7.943-1.468-13.896c-3.1,8.803-5.717,23.853-14.062,29.441c-6.461,4.325-12.23-1.479-16.874-5.518
					c-8.806-7.662-17.615-15.327-26.423-22.992c1.875-1.732,3.753-3.465,5.629-5.2c0.616-0.568,0.649-0.719,1.351-1.284
					c1.645-1.319,1.457-1.799,3.157-0.637c1.138,0.775,4.186,3.603,5.153,4.501c3.191,2.968,5.991,4.768,9.182,7.739
					c2.774,2.58,7.528,8.566,11.785,6.477c3.276-1.61,4.171-8.273,5.295-11.245c3.127-8.259,6.277-16.572,10.004-24.586
					c3.988-8.573,12.816-13.129,21.376-16.542c7.412-2.955,17.333-2.364,24.854-0.449c5.275,1.343,7.162,1.421,12.413,2.879
					c5.018,1.398,9.715,3.186,14.8,4.235c5.938,1.229,11.994,1.651,18.039,1.729c4.754,0.059,6.725-0.742,10.728-3.521
					c5.381-3.735,13.257-10.188,19.168-13.176C242.626,416.81,243.924,422.996,246.825,425.97z"/>
			</g>
		</g>
		<g>
			<g>
				<path fill="#EEA886" d="M158.352,413.062c0,0-0.895,11.127,1.246,14.46c2.145,3.329-1.832,7.854-10.022,6.308
					c-8.19-1.546-7.714-6.189-7.714-6.189s2.293-6.869,1.621-12.363C142.813,409.78,158.352,413.062,158.352,413.062z"/>
			</g>
		</g>
		<g>
			<g>
				<path fill="#EEA886" d="M163.679,426.583c0,0-7.387,17.258-16.958,20.861c0,0-9.438-8.377-6.897-20.791
					C139.823,426.653,152.001,420.416,163.679,426.583z"/>
			</g>
		</g>
		<g>
			<g>
				<path fill="#EEA886" d="M152.124,374.643c0,0,14.76,2.132,12.598,23.919c-2.161,21.794-15.189,20.064-16.058,20.047
					c-0.871-0.019-13.069,0.454-14.124-26.139C134.54,392.47,134.047,372.806,152.124,374.643z"/>
			</g>
		</g>
		<g>
			<g>
				<path fill="#223247" d="M150.435,382.543c0,0,6.895,7.25,10.1,10.92c3.204,3.674,3.572,10.766,3.572,10.766
					s5.396-6.592,3.14-14.271c-2.259-7.677-7.598-22.611-21.115-18.021c-13.517,4.588-14.017,24.781-12.433,34.793
					C133.7,406.729,139.767,384.629,150.435,382.543z"/>
			</g>
		</g>
		<g>
			<path fill="#A77860" d="M144.758,417.688c0,0,6.312,3.161,12.71-1.829c0,0-2.453,4.085-6.74,4.308
				C146.44,420.387,144.758,417.688,144.758,417.688z"/>
		</g>
		<g>
			<path fill="#23344A" d="M104.207,477.379c-0.633,1.352-2.06,2.026-2.06,2.026c-6.748,3.645-7.921,12.238-8.157,15.276
				l-1.434-0.013C93.742,478.828,104.207,477.379,104.207,477.379z"/>
		</g>
		<g>
			<path fill="#23344A" d="M103.811,477.467c0,0-10.896,0.514-13.968,17.035l1.12,0.18c0,0,2.134-12.176,10.833-15.445
				C101.795,479.236,103.004,478.72,103.811,477.467z"/>
		</g>
		<g>
			<path fill="#F0DDD5" d="M180.934,519.013c0,0,14.906,30.866,4.885,93.502c0,0-30.403-2.851-75.997-6.104
				c0,0,20.744-84.251,21.323-89.604C131.727,511.454,180.934,519.013,180.934,519.013z"/>
		</g>
		<g>
			<g>
				<path fill="#EEA886" d="M147.436,701.107c0,0,4.257,2.837,8.196-0.945l0.317,3.289c0,0-6.727,6.052-8.513-0.449V701.107z"/>
			</g>
		</g>
		<g>
			<g>
				<path fill="#EEA886" d="M171.807,700.561c0,0,2.542,2.297,6.385-1.138l0.493,3.836c0,0-6.544,6.693-8.329,0.192L171.807,700.561
					z"/>
			</g>
		</g>
		<g>
			<g>
				<path fill="#3F74A0" d="M147.436,703.002c0,0-3.501,4.178-3.157,4.863c0.341,0.686,7.979,2.232,9.137,0.598
					c1.158-1.628,2.533-5.012,2.533-5.012S149.268,706.413,147.436,703.002z"/>
			</g>
		</g>
		<g>
			<g>
				<path fill="#3F74A0" d="M170.57,702.915c0,0-3.263,4.6-2.921,5.288c0.343,0.686,7.115,1.779,8.275,0.151
					c1.158-1.631,2.76-5.096,2.76-5.096S172.401,706.329,170.57,702.915z"/>
			</g>
		</g>
		<g>
			<path fill="#FF4D4D" d="M130.699,512.355c0,0,17.906,6.636,43.768-7.983c0,0,1.032,2.108,2.188,5.003
				c0,0-23.575,14.557-45.511,7.432C131.145,516.807,130.404,513.478,130.699,512.355z"/>
		</g>
		<g>
			<path fill="#AD3434" d="M125.538,451.847c-2.06,5.346-2.286,15.031-2.286,15.031s-0.671,2.533-1.745,5.54
				C121.212,458.033,125.538,451.847,125.538,451.847z"/>
		</g>
		<g>
			<g>
				<path fill="#C43B3B" d="M149.206,427.873c-0.951,0-1.793-0.096-2.519-0.233c-2.965-0.568-4.205-1.985-4.276-2.047l0.367-1.392
					c0.015,0.014,1.664,1.5,4.277,1.976c3.508,0.642,7.482-0.317,11.387-2.759l0.584,1.321
					C155.139,427.174,151.782,427.873,149.206,427.873z"/>
			</g>
		</g>
	</g>
	<g>
		<path fill="#EEECF0" d="M194.991,195.235l-34.493,6.468c-1.969,0.369-3.753,1.396-5.062,2.91L77.161,295.15
			c-3.196,3.697-2.788,9.283,0.906,12.478l33.081,28.601c3.696,3.195,9.283,2.79,12.479-0.908l78.274-90.536
			c1.311-1.514,2.067-3.429,2.148-5.428l1.415-35.07C205.693,198.606,200.582,194.187,194.991,195.235z M199.976,207.288
			c-1.708,1.978-4.697,2.194-6.676,0.485c-1.975-1.711-2.195-4.7-0.484-6.677c1.71-1.978,4.699-2.195,6.678-0.484
			C201.47,202.319,201.686,205.31,199.976,207.288z"/>
		<g>
			<path fill="#78C2FF" d="M127.716,302.028c-1.162,1.342-2.493,2.451-3.996,3.32c-1.506,0.873-3.036,1.417-4.597,1.63l-1.197-5.069
				c0.236,0.05,0.629,0.023,1.175-0.084c0.545-0.106,1.161-0.293,1.845-0.561c0.684-0.267,1.391-0.643,2.117-1.123
				c0.728-0.48,1.395-1.069,1.998-1.766c0.927-1.073,1.408-2.055,1.446-2.949c0.037-0.888-0.295-1.635-0.993-2.24
				c-0.337-0.292-0.725-0.445-1.152-0.456c-0.429-0.011-0.895,0.079-1.401,0.266c-0.507,0.188-1.057,0.454-1.651,0.799
				c-0.597,0.344-1.239,0.735-1.927,1.17c-1.571,0.986-2.966,1.56-4.187,1.726c-1.221,0.162-2.375-0.226-3.466-1.171
				c-1.111-0.956-1.905-2.035-2.387-3.232c-0.48-1.197-0.704-2.429-0.67-3.697s0.315-2.525,0.845-3.771
				c0.53-1.245,1.25-2.395,2.164-3.451c1.098-1.271,2.287-2.218,3.563-2.847c1.28-0.63,2.499-1.037,3.659-1.224l1.033,4.879
				c-0.186-0.035-0.504-0.013-0.95,0.07c-0.446,0.083-0.949,0.237-1.501,0.459c-0.552,0.226-1.116,0.526-1.693,0.903
				c-0.577,0.377-1.095,0.834-1.56,1.371c-0.928,1.073-1.391,2.079-1.387,3.017c0,0.94,0.384,1.74,1.151,2.406
				c0.305,0.261,0.634,0.414,0.989,0.454c0.355,0.044,0.75-0.014,1.182-0.171c0.432-0.158,0.906-0.389,1.421-0.697
				c0.513-0.305,1.1-0.672,1.752-1.106c0.817-0.546,1.602-0.999,2.354-1.365c0.753-0.366,1.481-0.602,2.186-0.712
				c0.705-0.11,1.396-0.068,2.072,0.125c0.675,0.194,1.344,0.578,2.006,1.15c1.198,1.035,2.026,2.158,2.484,3.364
				c0.454,1.209,0.633,2.425,0.526,3.646c-0.103,1.222-0.451,2.429-1.045,3.62C129.333,299.905,128.596,301.009,127.716,302.028z"/>
			<path fill="#78C2FF" d="M140.525,287.319c-0.68,0.787-1.435,1.362-2.264,1.724c-0.827,0.362-1.686,0.534-2.577,0.514
				c-0.889-0.02-1.784-0.223-2.685-0.609c-0.899-0.387-1.752-0.929-2.556-1.625c-1.164-1.004-2.094-2.176-2.796-3.519
				c-0.701-1.34-1.148-2.711-1.343-4.114c-0.194-1.402-0.129-2.776,0.191-4.124c0.321-1.347,0.922-2.531,1.803-3.551
				c0.836-0.966,1.798-1.572,2.884-1.819c1.091-0.247,2.145-0.147,3.164,0.299l-1.948-2.625l3.106-3.596l8.064,10.629
				c0.152,0.224,0.29,0.39,0.416,0.499c0.375,0.324,0.756,0.278,1.146-0.137l2.501,3.291c-0.224,0.368-0.423,0.687-0.596,0.961
				c-0.176,0.273-0.337,0.499-0.493,0.676c-0.541,0.626-1.104,1.007-1.688,1.142c-0.586,0.134-1.148-0.032-1.684-0.495
				c-0.214-0.186-0.508-0.534-0.881-1.042c0.309,1.453,0.29,2.837-0.049,4.152C141.901,285.268,141.329,286.389,140.525,287.319z
				 M138.859,283.065c0.263-0.303,0.486-0.678,0.672-1.129c0.186-0.449,0.311-0.927,0.373-1.435c0.065-0.507,0.077-1.027,0.04-1.561
				c-0.041-0.534-0.144-1.045-0.314-1.537l-2.752-3.598c-0.878-0.572-1.8-0.822-2.769-0.754c-0.966,0.07-1.744,0.445-2.33,1.125
				c-0.496,0.572-0.827,1.254-0.997,2.045c-0.168,0.793-0.183,1.603-0.037,2.429c0.143,0.83,0.418,1.631,0.827,2.405
				c0.408,0.774,0.933,1.439,1.578,1.997c0.931,0.806,1.923,1.226,2.983,1.267C137.195,284.362,138.101,283.944,138.859,283.065z"/>
			<path fill="#78C2FF" d="M153.088,272.679c-0.788,0.914-1.6,1.43-2.438,1.548c-0.837,0.12-1.651-0.16-2.438-0.842
				c-0.16-0.138-0.314-0.285-0.459-0.443c-0.146-0.157-0.303-0.337-0.47-0.544l-13.321-17.613l3.084-3.569l12.317,16.228
				c0.075,0.096,0.152,0.187,0.234,0.274c0.081,0.085,0.167,0.167,0.256,0.245c0.734,0.633,1.417,0.583,2.052-0.149
				c0.168-0.196,0.33-0.455,0.485-0.778c0.152-0.319,0.275-0.642,0.368-0.967l2.644,2.472c-0.216,0.722-0.542,1.46-0.983,2.221
				C153.98,271.521,153.539,272.16,153.088,272.679z"/>
			<path fill="#78C2FF" d="M162.723,261.646c-0.773,0.895-1.614,1.566-2.519,2.018c-0.905,0.452-1.839,0.699-2.8,0.743
				c-0.96,0.046-1.917-0.116-2.863-0.482c-0.949-0.367-1.854-0.922-2.712-1.664c-1.162-1.004-2.07-2.189-2.722-3.55
				c-0.651-1.36-1.026-2.777-1.126-4.253c-0.1-1.477,0.086-2.955,0.557-4.441c0.471-1.484,1.248-2.853,2.33-4.104
				c1.315-1.52,2.697-2.442,4.148-2.765c1.452-0.324,2.813,0.064,4.083,1.161c3.022,2.611,2.198,6.619-2.472,12.02
				c-0.277,0.324-0.564,0.656-0.857,0.995c-0.294,0.339-0.622,0.682-0.98,1.025l0.348,0.302c0.947,0.82,1.901,1.269,2.864,1.35
				c0.962,0.082,1.844-0.343,2.647-1.273c0.618-0.713,1.033-1.537,1.242-2.467c0.209-0.927,0.173-1.842-0.111-2.744l3.343-2.078
				c0.226,0.82,0.346,1.689,0.353,2.602c0.007,0.914-0.095,1.816-0.306,2.713c-0.212,0.894-0.523,1.76-0.932,2.593
				C163.831,260.182,163.324,260.949,162.723,261.646z M153.006,248.698c-0.447,0.519-0.771,1.083-0.97,1.691
				c-0.199,0.61-0.287,1.228-0.267,1.855c0.02,0.628,0.13,1.262,0.328,1.9c0.195,0.639,0.466,1.249,0.811,1.826
				c0.265-0.269,0.513-0.539,0.746-0.807c0.231-0.268,0.471-0.545,0.719-0.832c0.741-0.858,1.327-1.625,1.756-2.303
				c0.429-0.677,0.712-1.275,0.851-1.796c0.137-0.521,0.155-0.965,0.052-1.336c-0.103-0.371-0.313-0.693-0.636-0.971
				c-0.52-0.449-1.078-0.589-1.677-0.42C154.119,247.674,153.548,248.072,153.006,248.698z"/>
		</g>
	</g>
	<g>
		<g>
			<path fill="#E6E6E6" d="M199.638,201.166l-0.291-1.109c0.027-0.009,2.677-0.715,6.162-2.69l0.565,0.998
				C202.449,200.42,199.75,201.137,199.638,201.166z"/>
		</g>
		<g>
			<path fill="#E6E6E6" d="M621.914,292.921l-1.086-0.369c1.569-4.627,2.944-8.903,4.208-13.074l1.101,0.331
				C624.866,283.995,623.486,288.283,621.914,292.921z M629.849,266.536l-1.112-0.283c1.172-4.605,2.188-9.107,3.019-13.384
				l1.124,0.219C632.049,257.386,631.025,261.91,629.849,266.536z M635.018,239.463l-1.14-0.135
				c0.551-4.719,0.875-9.313,0.955-13.654l1.15,0.021C635.9,230.075,635.574,234.705,635.018,239.463z M634.257,212.022
				c-0.517-4.692-1.371-9.198-2.552-13.397l1.105-0.312c1.196,4.259,2.066,8.831,2.584,13.583L634.257,212.022z M216.616,189.316
				l-0.905-0.707c2.729-3.494,4.756-7.538,6.031-12.014l1.104,0.312C221.533,181.531,219.436,185.706,216.616,189.316z
				 M626.767,185.952c-2.082-4.051-4.61-7.857-7.506-11.32l0.884-0.737c2.947,3.528,5.521,7.407,7.641,11.532L626.767,185.952z
				 M609.471,165.212c-3.45-2.688-7.309-5.157-11.466-7.337l0.532-1.019c4.22,2.213,8.136,4.719,11.64,7.45L609.471,165.212z
				 M224.548,163.162l-1.148-0.026c0.093-4.136,0.498-8.904,1.172-13.791l1.138,0.156
				C225.042,154.346,224.64,159.069,224.548,163.162z M585.484,152.451c-4.097-1.454-8.515-2.742-13.124-3.829l0.261-1.117
				c4.652,1.095,9.108,2.396,13.246,3.862L585.484,152.451z M558.907,146.081c-4.332-0.636-8.916-1.145-13.618-1.514l0.088-1.144
				c4.731,0.37,9.342,0.884,13.699,1.521L558.907,146.081z M531.576,143.487c-4.736-0.469-9.324-1.048-13.643-1.721l0.179-1.135
				c4.297,0.671,8.863,1.248,13.575,1.715L531.576,143.487z M504.434,139.172c-4.637-1.072-9.092-2.321-13.251-3.707l0.365-1.089
				c4.119,1.375,8.543,2.614,13.144,3.678L504.434,139.172z M228.199,136.01l-1.121-0.259c1.042-4.522,2.29-9.001,3.702-13.311
				l1.09,0.358C230.468,127.075,229.232,131.52,228.199,136.01z M478.39,130.371c-4.206-1.978-8.151-4.157-12.061-6.659l0.62-0.966
				c3.867,2.473,7.769,4.628,11.928,6.584L478.39,130.371z M455.19,115.616c-3.803-3.083-7.382-6.294-10.377-9.025l0.77-0.849
				c2.988,2.72,6.55,5.918,10.329,8.981L455.19,115.616z M236.769,110.001l-1.05-0.464c1.903-4.302,4.019-8.441,6.286-12.305
				l0.991,0.583C240.75,101.64,238.653,105.742,236.769,110.001z M434.669,97.338c-3.86-3.442-7.186-6.24-10.475-8.803l0.702-0.906
				c3.313,2.58,6.66,5.394,10.536,8.855L434.669,97.338z M250.661,86.498l-0.906-0.706c2.887-3.694,6.011-7.137,9.292-10.232
				l0.787,0.834C256.596,79.451,253.51,82.852,250.661,86.498z M413.047,80.633c-3.781-2.418-7.77-4.702-11.849-6.785l0.52-1.023
				c4.114,2.102,8.133,4.402,11.949,6.84L413.047,80.633z M388.769,68.178c-4.066-1.654-8.39-3.225-12.849-4.671l0.356-1.092
				c4.482,1.455,8.832,3.038,12.924,4.701L388.769,68.178z M270.475,67.876l-0.643-0.951c3.815-2.561,7.877-4.816,12.082-6.7
				l0.47,1.045C278.24,63.13,274.231,65.353,270.475,67.876z M362.784,59.686c-3.516-0.915-7.199-1.792-10.955-2.607
				c-0.8-0.174-1.594-0.339-2.384-0.5l0.228-1.125c0.794,0.161,1.596,0.329,2.399,0.504c3.769,0.82,7.47,1.7,10.999,2.619
				L362.784,59.686z M295.229,56.739l-0.294-1.111c4.335-1.149,8.896-2.001,13.561-2.537l0.126,1.139
				C304.018,54.759,299.508,55.604,295.229,56.739z M335.921,54.415c-4.66-0.533-9.255-0.826-13.659-0.869l0.01-1.148
				c4.447,0.044,9.08,0.34,13.776,0.879L335.921,54.415z"/>
		</g>
		<g>
			<path fill="#E6E6E6" d="M614.709,313.072l-1.077-0.399c0.776-2.098,1.57-4.251,2.374-6.459l1.079,0.394
				C616.279,308.814,615.485,310.973,614.709,313.072z"/>
		</g>
	</g>
	<g>
		<path fill="#78C2FF" d="M896.282,315.036l36.271-20.874l34.69-22.765l3.816,6.88l-35.265,20.617l-35.699,23.019L896.282,315.036z
			 M918.121,284.857c-2.124-0.753-3.968-1.814-5.531-3.186c-1.564-1.373-2.792-2.918-3.688-4.634
			c-0.895-1.716-1.445-3.549-1.638-5.498c-0.203-1.949,0.04-3.893,0.729-5.836c0.665-1.88,1.693-3.533,3.083-4.954
			c1.393-1.42,2.966-2.5,4.734-3.243c1.767-0.742,3.688-1.154,5.765-1.24c2.076-0.084,4.177,0.249,6.305,1
			c2.063,0.733,3.894,1.788,5.487,3.172c1.594,1.382,2.843,2.918,3.748,4.604c0.905,1.687,1.455,3.52,1.642,5.498
			c0.186,1.978-0.052,3.908-0.721,5.792c-0.684,1.942-1.715,3.607-3.096,4.997c-1.381,1.392-2.958,2.473-4.734,3.244
			c-1.775,0.772-3.714,1.195-5.824,1.267C922.271,285.915,920.188,285.586,918.121,284.857z M920.278,278.757
			c0.912,0.321,1.819,0.403,2.731,0.246c0.909-0.156,1.787-0.475,2.645-0.959c0.851-0.482,1.611-1.134,2.279-1.959
			c0.665-0.823,1.182-1.75,1.546-2.782c0.754-2.125,0.754-4.155,0.008-6.095c-0.75-1.937-2.007-3.219-3.765-3.84
			c-0.913-0.323-1.82-0.404-2.73-0.249c-0.91,0.158-1.793,0.477-2.646,0.96c-0.851,0.483-1.607,1.12-2.258,1.914
			c-0.659,0.792-1.17,1.707-1.534,2.737c-0.752,2.125-0.761,4.172-0.02,6.139C917.271,276.838,918.52,278.135,920.278,278.757z
			 M939.517,336.166c-2.128-0.752-3.972-1.813-5.532-3.186c-1.565-1.373-2.802-2.901-3.704-4.586
			c-0.908-1.686-1.461-3.505-1.657-5.453c-0.204-1.948,0.043-3.892,0.732-5.837c0.686-1.94,1.72-3.607,3.101-4.997
			c1.377-1.39,2.954-2.471,4.73-3.243c1.775-0.773,3.703-1.202,5.78-1.284c2.081-0.085,4.181,0.249,6.305,1
			c2.124,0.752,3.971,1.815,5.534,3.187c1.564,1.373,2.807,2.924,3.731,4.649c0.926,1.729,1.473,3.56,1.642,5.498
			c0.166,1.939-0.091,3.878-0.779,5.819c-0.687,1.943-1.705,3.616-3.05,5.014c-1.354,1.402-2.925,2.47-4.721,3.198
			c-1.793,0.734-3.731,1.14-5.813,1.224C943.74,337.25,941.64,336.917,939.517,336.166z M941.673,330.066
			c0.909,0.321,1.817,0.403,2.729,0.249c0.904-0.156,1.786-0.477,2.641-0.959c0.854-0.485,1.614-1.123,2.265-1.914
			c0.656-0.792,1.17-1.704,1.534-2.738c0.386-1.091,0.563-2.172,0.533-3.243c-0.03-1.068-0.212-2.055-0.539-2.957
			c-0.332-0.902-0.824-1.688-1.473-2.364c-0.649-0.673-1.398-1.162-2.249-1.461c-0.912-0.323-1.82-0.405-2.729-0.25
			c-0.911,0.157-1.79,0.479-2.645,0.961c-0.854,0.483-1.614,1.137-2.279,1.96c-0.669,0.821-1.185,1.75-1.55,2.781
			c-0.75,2.124-0.75,4.156-0.003,6.092C938.655,328.165,939.911,329.443,941.673,330.066z"/>
	</g>
	<g>
		<path fill="#78C2FF" d="M113.718,54.266c-1.251,0.829-2.555,1.38-3.911,1.663c-1.355,0.278-2.669,0.312-3.941,0.099
			c-1.271-0.214-2.463-0.657-3.578-1.334c-1.112-0.676-2.049-1.586-2.802-2.73c-0.734-1.109-1.199-2.315-1.395-3.624
			c-0.199-1.308-0.14-2.579,0.173-3.815c0.314-1.233,0.867-2.42,1.657-3.559c0.787-1.137,1.807-2.118,3.058-2.947
			c1.215-0.8,2.51-1.35,3.885-1.642c1.374-0.291,2.69-0.34,3.949-0.145c1.258,0.196,2.45,0.642,3.578,1.334
			c1.124,0.694,2.055,1.596,2.788,2.702c0.756,1.145,1.227,2.364,1.412,3.651c0.184,1.292,0.126,2.562-0.174,3.814
			c-0.304,1.253-0.857,2.455-1.665,3.604C115.944,52.488,114.933,53.463,113.718,54.266z M111.341,50.673
			c0.537-0.354,0.947-0.805,1.23-1.348c0.28-0.547,0.463-1.144,0.55-1.793c0.084-0.645,0.044-1.31-0.125-1.995
			c-0.172-0.684-0.457-1.33-0.858-1.938c-0.827-1.251-1.904-2.065-3.234-2.447c-1.33-0.377-2.512-0.226-3.549,0.46
			c-0.537,0.354-0.946,0.805-1.228,1.35c-0.283,0.544-0.464,1.143-0.551,1.79c-0.085,0.648-0.049,1.302,0.108,1.97
			c0.157,0.666,0.438,1.303,0.839,1.911c0.827,1.251,1.912,2.075,3.252,2.473C109.118,51.503,110.308,51.359,111.341,50.673z
			 M120.986,77.97l3.461-27.638l1.821-27.551l5.187,0.733l-3.191,26.993l-2.093,28.195L120.986,77.97z M149.547,63.482
			c-1.25,0.829-2.553,1.382-3.911,1.661c-1.354,0.28-2.663,0.323-3.92,0.125c-1.26-0.193-2.449-0.628-3.562-1.306
			c-1.116-0.675-2.048-1.584-2.807-2.73c-0.753-1.142-1.226-2.359-1.412-3.65c-0.182-1.289-0.125-2.56,0.178-3.813
			c0.302-1.252,0.848-2.448,1.636-3.587c0.791-1.137,1.81-2.118,3.061-2.945c1.251-0.83,2.554-1.382,3.912-1.662
			c1.354-0.279,2.678-0.318,3.965-0.117c1.29,0.201,2.482,0.646,3.577,1.334c1.098,0.687,2.024,1.603,2.781,2.746
			c0.756,1.146,1.236,2.357,1.437,3.634c0.204,1.279,0.14,2.541-0.193,3.788c-0.333,1.247-0.891,2.438-1.68,3.575
			C151.819,61.674,150.799,62.656,149.547,63.482z M147.174,59.891c0.536-0.354,0.943-0.803,1.226-1.351
			c0.281-0.544,0.464-1.141,0.55-1.79c0.086-0.645,0.049-1.304-0.108-1.971c-0.156-0.664-0.438-1.3-0.839-1.91
			c-0.426-0.644-0.928-1.17-1.509-1.583c-0.579-0.412-1.175-0.711-1.786-0.897c-0.611-0.187-1.228-0.244-1.844-0.171
			c-0.622,0.077-1.179,0.277-1.68,0.609c-0.536,0.355-0.944,0.806-1.226,1.351c-0.282,0.546-0.468,1.144-0.552,1.79
			c-0.084,0.648-0.044,1.313,0.125,1.997c0.171,0.686,0.456,1.33,0.857,1.938c0.828,1.251,1.905,2.068,3.235,2.445
			C144.954,60.728,146.136,60.577,147.174,59.891z"/>
	</g>
</g>
</svg>
